<svg width="194" height="38" viewBox="0 0 194 38" fill="none" xmlns="http://www.w3.org/2000/svg">
<path d="M33.0893 0V20.5602C33.0893 32.4552 26.7056 37.0182 16.5447 37.0182C6.38375 37.0182 0 32.4607 0 20.5602V0H9.115V18.2788C9.115 26.0715 12.0305 29.0358 16.5447 29.0358C21.0588 29.0358 23.9743 26.0715 23.9743 18.2788V0H33.0893Z" fill="#003366"/>
<path d="M75.5157 0V37.0128H66.2598L47.4283 14.0193V37.0128H38.1724V0H47.4283L66.2598 23.2265V0H75.5157Z" fill="#003366"/>
<path d="M154.695 9.88994C151.519 8.81695 146.772 8.1016 143.19 8.1016C140.323 8.1016 135.668 8.5514 135.668 10.654C135.668 14.5937 155.362 14.0572 155.362 27.3016C155.362 34.016 150.035 37.0128 141.933 37.0128C136.698 37.0128 130.921 35.7609 126.851 34.5958V26.6297C128.596 27.1228 134.281 29.2255 140.052 29.2255C143.992 29.2255 146.409 28.2392 146.409 26.5863C146.409 21.6657 126.402 22.5599 126.402 10.6974C126.402 4.07519 132.536 0 141.89 0C146.23 0 152.094 0.807428 154.69 1.83707V9.89533L154.695 9.88994Z" fill="#003366"/>
<path d="M194 13.4178C194 23.6871 185.671 26.5105 177.157 26.5105H169.706V37.0128H160.45V0H176.691C184.744 0 193.994 2.40607 193.994 13.4178H194ZM184.652 13.4666C184.652 10.3668 182.663 8.32923 177.618 8.32923H169.706V18.1867H177.618C182.663 18.1867 184.652 16.1978 184.652 13.4666Z" fill="#003366"/>
<path d="M121.318 37.0128H121.308C117.785 36.2974 114.203 35.7664 110.556 35.425L107.619 23.66C108.535 23.3944 109.44 23.1126 110.345 22.8037C111.878 22.2835 113.677 21.7904 115.124 20.8854L121.318 37.0182V37.0128Z" fill="#003366"/>
<path d="M93.3612 27.4371L91.3669 35.425C87.7198 35.7664 84.1324 36.2974 80.6153 37.0128H80.6045L81.9376 33.5391C83.4658 31.3118 85.8015 29.9462 88.2943 29.0032C89.9363 28.38 91.6379 27.8869 93.3557 27.4425" fill="#003366"/>
<path d="M83.9373 25.5838C83.2437 23.0422 85.7581 21.3352 87.7415 20.4789C90.0772 19.471 92.6242 18.8695 95.0899 18.2896C97.5881 17.7043 100.081 17.1787 102.574 16.5826C104.996 16.0081 107.435 15.4445 109.797 14.6479C112.247 13.8188 114.799 12.6103 115.796 10.0579C116.669 12.464 115.168 14.6262 113.125 15.7643C110.838 17.0378 108.101 17.6393 105.587 18.2842C103.007 18.9453 100.417 19.5902 97.8266 20.208C95.2471 20.8258 92.7759 21.346 90.1314 22.1859C87.9962 22.8633 85.4601 23.8171 83.9427 25.5838" fill="#003366"/>
<path d="M113.331 10.9683C112.529 11.7812 111.44 12.3069 110.388 12.7133C107.841 13.6996 105.218 14.4366 102.563 15.0652C97.8212 16.2032 96.7753 16.149 91.4158 17.6989C88.1751 18.6364 86.8095 19.536 86.1646 20.1213C86.0996 18.7014 87.0967 17.7206 88.2618 17.054L94.8082 0H100.195L96.5694 14.5287C99.3332 13.9164 102.124 13.3419 104.861 12.5995L101.718 0H107.104L111.114 10.4481C112.361 9.83031 113.466 9.00119 114.084 7.71143C114.566 8.8061 114.127 10.1555 113.32 10.9683" fill="#003366"/>
<path d="M81.981 31.9458C81.4337 28.4884 84.5822 26.0715 87.346 24.798C90.5487 23.324 94.0549 22.6574 97.4689 21.8391C101.105 20.9721 104.747 20.0725 108.345 19.0591C111.754 18.0999 115.927 16.9186 117.476 13.3907C118.197 15.011 117.558 17.0595 116.376 18.2896C114.848 19.8828 112.372 20.5169 110.35 21.2051C107.538 22.1643 104.644 22.8905 101.772 23.6654C100.124 24.1098 98.4769 24.5379 96.8241 24.966C93.9898 25.703 91.0852 26.3587 88.3485 27.3992C85.8557 28.3475 83.5146 29.7077 81.9864 31.9404" fill="#003366"/>
</svg>
