<svg width="194" height="38" viewBox="0 0 194 38" fill="none" xmlns="http://www.w3.org/2000/svg">
<path d="M33.0893 0V20.5602C33.0893 32.4552 26.7056 37.0182 16.5447 37.0182C6.38375 37.0182 0 32.4607 0 20.5602V0H9.115V18.2788C9.115 26.0715 12.0305 29.0358 16.5447 29.0358C21.0588 29.0358 23.9743 26.0715 23.9743 18.2788V0H33.0893Z" fill="white"/>
<path d="M75.5158 0V37.0128H66.2599L47.4284 14.0193V37.0128H38.1725V0H47.4284L66.2599 23.2265V0H75.5158Z" fill="white"/>
<path d="M154.695 9.88994C151.519 8.81695 146.772 8.1016 143.19 8.1016C140.323 8.1016 135.668 8.5514 135.668 10.654C135.668 14.5937 155.362 14.0572 155.362 27.3016C155.362 34.016 150.034 37.0128 141.933 37.0128C136.698 37.0128 130.921 35.7609 126.851 34.5958V26.6297C128.596 27.1228 134.281 29.2255 140.052 29.2255C143.992 29.2255 146.409 28.2392 146.409 26.5863C146.409 21.6657 126.402 22.5599 126.402 10.6974C126.402 4.07519 132.536 0 141.89 0C146.23 0 152.094 0.807428 154.69 1.83707V9.89533L154.695 9.88994Z" fill="white"/>
<path d="M194 13.4178C194 23.6871 185.671 26.5105 177.157 26.5105H169.706V37.0128H160.45V0H176.691C184.744 0 193.995 2.40607 193.995 13.4178H194ZM184.652 13.4666C184.652 10.3668 182.663 8.32923 177.618 8.32923H169.706V18.1867H177.618C182.663 18.1867 184.652 16.1978 184.652 13.4666Z" fill="white"/>
<path d="M121.318 37.0128H121.308C117.785 36.2974 114.203 35.7664 110.556 35.425L107.619 23.66C108.535 23.3944 109.44 23.1126 110.345 22.8037C111.878 22.2835 113.677 21.7904 115.124 20.8854L121.318 37.0182V37.0128Z" fill="white"/>
<path d="M93.361 27.4371L91.3668 35.425C87.7197 35.7664 84.1322 36.2974 80.6152 37.0128H80.6044L81.9375 33.5391C83.4657 31.3118 85.8013 29.9462 88.2941 29.0032C89.9361 28.38 91.6378 27.8869 93.3556 27.4425" fill="white"/>
<path d="M83.9371 25.5838C83.2435 23.0422 85.758 21.3352 87.7414 20.4789C90.077 19.471 92.624 18.8695 95.0898 18.2896C97.588 17.7043 100.081 17.1787 102.574 16.5826C104.996 16.0081 107.435 15.4445 109.797 14.6479C112.247 13.8188 114.799 12.6103 115.796 10.0579C116.669 12.464 115.168 14.6262 113.125 15.7643C110.838 17.0378 108.101 17.6393 105.587 18.2842C103.007 18.9453 100.417 19.5902 97.8264 20.208C95.2469 20.8258 92.7758 21.346 90.1312 22.1859C87.9961 22.8633 85.4599 23.8171 83.9426 25.5838" fill="white"/>
<path d="M113.331 10.9683C112.529 11.7812 111.439 12.3069 110.388 12.7133C107.841 13.6996 105.218 14.4366 102.563 15.0652C97.821 16.2032 96.7751 16.149 91.4156 17.6989C88.1749 18.6364 86.8093 19.536 86.1644 20.1213C86.0994 18.7014 87.0965 17.7206 88.2617 17.054L94.808 0H100.195L96.5692 14.5287C99.333 13.9164 102.124 13.3419 104.86 12.5995L101.717 0H107.104L111.114 10.4481C112.361 9.83031 113.466 9.00119 114.084 7.71143C114.566 8.8061 114.127 10.1555 113.32 10.9683" fill="white"/>
<path d="M81.9808 31.9458C81.4335 28.4884 84.582 26.0715 87.3458 24.798C90.5485 23.324 94.0547 22.6574 97.4688 21.8391C101.105 20.9721 104.747 20.0725 108.345 19.0591C111.754 18.0999 115.926 16.9186 117.476 13.3907C118.197 15.011 117.558 17.0595 116.376 18.2896C114.848 19.8828 112.371 20.5169 110.35 21.2051C107.538 22.1643 104.644 22.8905 101.772 23.6654C100.124 24.1098 98.4767 24.5379 96.8239 24.966C93.9897 25.703 91.085 26.3587 88.3483 27.3992C85.8555 28.3475 83.5145 29.7077 81.9863 31.9404" fill="white"/>
</svg>
