<svg width="16" height="16" viewBox="0 0 16 16" fill="none" xmlns="http://www.w3.org/2000/svg">
<path d="M3.81332 7.98H5.45999V9.576H3.81332V7.98Z" fill="#FF4E1D"/>
<path d="M3.81332 11.172H5.45999V12.768H3.81332V11.172Z" fill="#FF4E1D"/>
<path d="M8.75332 7.98H7.10666V9.576H8.75332V7.98Z" fill="#FF4E1D"/>
<path d="M7.10666 11.172H8.75332V12.768H7.10666V11.172Z" fill="#FF4E1D"/>
<path d="M12.0467 7.98H10.4V9.576H12.0467V7.98Z" fill="#FF4E1D"/>
<path d="M10.4 11.172H12.0467V12.768H10.4V11.172Z" fill="#FF4E1D"/>
<path fill-rule="evenodd" clip-rule="evenodd" d="M13.6933 15.96H2.16666C1.25852 15.96 0.519989 15.2442 0.519989 14.364V3.192C0.519989 2.31181 1.25852 1.596 2.16666 1.596H3.81332V0H5.45999V1.596H10.4V0H12.0467V1.596H13.6933C14.6015 1.596 15.34 2.31181 15.34 3.192V14.364C15.34 15.2442 14.6015 15.96 13.6933 15.96ZM13.6934 4.788L13.6933 3.192H2.16666V4.788H13.6934ZM13.6936 6.384L13.6941 14.364H2.16666V6.384H13.6936Z" fill="#FF4E1D"/>
</svg>
