<svg width="21" height="14" viewBox="0 0 21 14" fill="none" xmlns="http://www.w3.org/2000/svg">
<path d="M19.5455 1.44617C19.2515 1.27029 18.8773 1.25074 18.5699 1.40057L14.6738 3.29623V0.977143C14.6738 0.436457 14.2261 0 13.6714 0H1.64243C1.08776 0 0.640015 0.436457 0.640015 0.977143V12.7029C0.640015 13.2435 1.08776 13.68 1.64243 13.68H13.6714C14.2261 13.68 14.6738 13.2435 14.6738 12.7029V10.3773L18.5699 12.2729C18.7102 12.3446 18.8639 12.3771 19.0176 12.3771C19.198 12.3771 19.3852 12.325 19.5455 12.2338C19.8396 12.0514 20.02 11.7387 20.02 11.4V2.28C20.02 1.94126 19.8396 1.62857 19.5455 1.44617ZM12.669 11.7257H2.64484V1.95429H12.669V4.88571V8.79429V11.7257ZM18.0152 9.81703L14.6738 8.18846V5.48503L18.0152 3.85646V9.81703Z" fill="#FF4E1D"/>
</svg>
