<svg width="16" height="17" viewBox="0 0 16 17" fill="none" xmlns="http://www.w3.org/2000/svg">
<path d="M7.98 0.280029C3.57983 0.280029 0 3.85986 0 8.26003C0 12.6602 3.57983 16.24 7.98 16.24C12.3802 16.24 15.96 12.6602 15.96 8.26003C15.96 3.85986 12.3802 0.280029 7.98 0.280029ZM7.98 14.644C4.46002 14.644 1.596 11.78 1.596 8.26003C1.596 4.74005 4.46002 1.87603 7.98 1.87603C11.5 1.87603 14.364 4.74005 14.364 8.26003C14.364 11.78 11.5 14.644 7.98 14.644Z" fill="#FF4E1D"/>
<path d="M8.77799 7.92974V4.27011C8.77799 3.82881 8.42128 3.47211 7.97999 3.47211C7.53869 3.47211 7.18199 3.82881 7.18199 4.27011V8.26011C7.18199 8.47237 7.26578 8.67507 7.4158 8.82429L9.8098 11.2183C9.96541 11.3739 10.1697 11.4521 10.374 11.4521C10.5783 11.4521 10.7826 11.3739 10.9382 11.2183C11.2502 10.9063 11.2502 10.4019 10.9382 10.0899L8.77799 7.92974Z" fill="#FF4E1D"/>
</svg>
